<?xml version="1.0" standalone="no"?>
<!DOCTYPE svg PUBLIC "-//W3C//DTD SVG 20010904//EN"
 "http://www.w3.org/TR/2001/REC-SVG-20010904/DTD/svg10.dtd">
<svg version="1.0" xmlns="http://www.w3.org/2000/svg"
 width="926.000000pt" height="926.000000pt" viewBox="0 0 926.000000 926.000000"
 preserveAspectRatio="xMidYMid meet">

<g transform="translate(0.000000,926.000000) scale(0.100000,-0.100000)"
fill="#000000" stroke="none">
<path d="M2655 7336 c-244 -52 -473 -171 -622 -325 -73 -75 -92 -106 -76 -122
5 -5 31 2 60 16 91 44 164 56 378 61 159 4 227 1 330 -13 l130 -18 6 -155 c5
-128 10 -165 28 -213 29 -74 92 -149 146 -175 89 -43 98 -45 191 -39 82 5 101
10 164 43 97 51 160 109 198 186 40 80 45 126 27 232 -29 163 -96 293 -202
386 -64 56 -209 125 -307 144 -118 24 -314 20 -451 -8z"/>
<path d="M6175 7328 c-224 -29 -409 -159 -499 -350 -108 -228 -101 -378 23
-511 97 -104 250 -164 370 -145 82 13 136 41 195 102 43 44 57 67 74 123 28
90 44 224 36 295 -8 66 -24 57 158 83 149 22 471 16 558 -9 98 -29 155 -48
168 -59 9 -7 12 -2 12 23 0 27 -13 45 -77 109 -130 129 -264 206 -493 284
-138 47 -386 73 -525 55z"/>
<path d="M2040 5609 c-198 -39 -308 -82 -445 -174 -178 -120 -305 -300 -346
-490 -15 -72 -15 -217 0 -300 32 -174 209 -420 386 -536 100 -66 137 -83 276
-129 179 -59 275 -74 439 -66 330 15 615 150 789 375 96 125 131 210 152 368
29 222 -60 463 -236 638 -153 154 -341 252 -573 301 -98 20 -141 24 -262 22
-80 -1 -161 -5 -180 -9z m-23 -121 c48 -22 98 -84 115 -141 16 -54 -3 -150
-41 -202 -34 -47 -102 -85 -165 -92 -57 -7 -138 30 -177 79 -85 109 -57 278
57 349 69 42 133 44 211 7z"/>
<path d="M6770 5609 c-25 -4 -63 -10 -85 -14 -63 -9 -193 -54 -280 -95 -213
-102 -370 -250 -462 -435 -66 -133 -77 -178 -78 -325 0 -114 4 -147 24 -210
85 -276 302 -475 626 -574 139 -43 191 -49 382 -44 168 5 185 7 293 40 355
108 596 326 701 633 21 61 24 88 24 215 0 139 -1 149 -32 233 -40 108 -87 182
-167 265 -147 154 -289 234 -511 289 -90 22 -136 27 -250 28 -77 1 -160 -2
-185 -6z m-224 -202 c43 -22 80 -66 105 -121 70 -159 -75 -344 -246 -312 -89
17 -189 150 -180 241 5 51 42 130 77 162 44 42 102 60 161 52 30 -4 67 -14 83
-22z"/>
<path d="M4345 3309 c-183 -36 -320 -101 -365 -174 -26 -42 -26 -118 -1 -186
21 -54 113 -183 171 -238 107 -102 271 -201 370 -222 92 -20 203 16 352 115
110 72 204 172 263 280 63 116 69 172 26 238 -40 63 -109 111 -211 147 -171
62 -414 77 -605 40z"/>
<path d="M4530 1448 c0 -75 -3 -89 -28 -129 -75 -117 -182 -197 -333 -246
-119 -39 -240 -49 -409 -32 -175 16 -174 16 -178 -3 -4 -20 53 -34 201 -49
300 -31 631 97 742 286 14 25 29 45 33 45 4 0 20 -16 36 -36 65 -81 207 -166
353 -210 76 -23 111 -27 253 -31 137 -4 181 -1 260 15 118 25 146 36 160 62
13 25 -3 26 -75 5 -76 -24 -170 -36 -290 -40 -264 -8 -444 54 -602 208 -68 66
-85 103 -81 175 3 53 1 57 -19 60 -22 3 -23 1 -23 -80z"/>
</g>
</svg>
